<svg xmlns="http://www.w3.org/2000/svg" xmlns:xlink="http://www.w3.org/1999/xlink" width="1920" zoomAndPan="magnify" viewBox="0 0 1440 809.999993" height="1080" preserveAspectRatio="xMidYMid meet" version="1.0"><defs><clipPath id="74c94f9d5b"><path d="M 572 60.203125 L 868 60.203125 L 868 749.554688 L 572 749.554688 Z M 572 60.203125 " clip-rule="nonzero"/></clipPath><clipPath id="6a8f7d529b"><path d="M 965 159 L 1261.675781 159 L 1261.675781 652 L 965 652 Z M 965 159 " clip-rule="nonzero"/></clipPath><clipPath id="d068f94ac2"><path d="M 371 559.742188 L 383 559.742188 L 383 584.425781 L 371 584.425781 Z M 371 559.742188 " clip-rule="nonzero"/></clipPath><clipPath id="477f34a354"><path d="M 357.867188 563 L 369 563 L 369 581 L 357.867188 581 Z M 357.867188 563 " clip-rule="nonzero"/></clipPath><clipPath id="56898ccf72"><path d="M 385 563 L 396.398438 563 L 396.398438 581 L 385 581 Z M 385 563 " clip-rule="nonzero"/></clipPath></defs><g clip-path="url(#74c94f9d5b)"><path fill="#000000" d="M 833.910156 62.703125 C 828.90625 61.164062 823.519531 60.203125 818.328125 60.203125 C 797.164062 60.203125 778.3125 73.859375 771.578125 93.863281 L 574.578125 684.734375 C 572.84375 689.738281 572.074219 694.929688 572.074219 700.316406 C 572.074219 727.4375 594.390625 749.554688 621.324219 749.554688 C 642.488281 749.554688 661.339844 735.898438 668.074219 715.894531 L 865.074219 125.023438 C 866.808594 120.023438 867.578125 114.636719 867.578125 109.441406 C 867.578125 88.285156 853.917969 69.4375 833.910156 62.703125 " fill-opacity="1" fill-rule="nonzero"/></g><path fill="#000000" d="M 459.148438 173.109375 C 449.914062 163.875 437.40625 158.683594 424.324219 158.683594 C 411.242188 158.683594 398.738281 163.875 389.503906 173.109375 L 192.503906 370.066406 C 183.269531 379.296875 178.074219 391.800781 178.074219 404.878906 C 178.074219 417.957031 183.269531 430.460938 192.503906 439.691406 L 389.503906 636.652344 C 398.738281 645.5 411.050781 650.5 423.746094 650.5 C 450.683594 650.5 473 628.1875 473 601.261719 C 473 588.566406 467.996094 576.253906 459.148438 567.023438 L 296.96875 404.878906 L 459.148438 242.734375 C 468.382812 233.503906 473.574219 221 473.574219 207.921875 C 473.574219 194.84375 468.382812 182.339844 459.148438 173.109375 " fill-opacity="1" fill-rule="nonzero"/><g clip-path="url(#6a8f7d529b)"><path fill="#000000" d="M 1247.148438 370.066406 L 1050.148438 173.109375 C 1040.914062 164.261719 1028.601562 159.257812 1015.90625 159.257812 C 988.972656 159.257812 966.65625 181.570312 966.65625 208.5 C 966.65625 221.195312 971.65625 233.503906 980.507812 242.734375 L 1142.6875 404.878906 L 980.507812 567.023438 C 970.886719 576.253906 965.5 589.144531 965.5 602.414062 C 965.5 629.535156 987.625 651.652344 1014.75 651.652344 C 1028.023438 651.652344 1040.914062 646.269531 1050.148438 636.652344 L 1247.148438 439.691406 C 1256.382812 430.460938 1261.578125 417.957031 1261.578125 404.878906 C 1261.578125 391.800781 1256.382812 379.296875 1247.148438 370.066406 " fill-opacity="1" fill-rule="nonzero"/></g><g clip-path="url(#d068f94ac2)"><path fill="#000000" d="M 381.1875 559.832031 C 381.011719 559.773438 380.820312 559.742188 380.636719 559.742188 C 379.882812 559.742188 379.210938 560.230469 378.972656 560.945312 L 371.96875 582.105469 C 371.90625 582.28125 371.878906 582.46875 371.878906 582.660156 C 371.878906 583.632812 372.671875 584.425781 373.632812 584.425781 C 374.382812 584.425781 375.054688 583.9375 375.292969 583.21875 L 382.296875 562.0625 C 382.359375 561.882812 382.386719 561.691406 382.386719 561.503906 C 382.386719 560.746094 381.898438 560.070312 381.1875 559.832031 " fill-opacity="1" fill-rule="nonzero"/></g><g clip-path="url(#477f34a354)"><path fill="#000000" d="M 367.863281 563.785156 C 367.535156 563.453125 367.09375 563.265625 366.628906 563.265625 C 366.164062 563.265625 365.71875 563.453125 365.390625 563.785156 L 358.386719 570.835938 C 358.058594 571.167969 357.871094 571.613281 357.871094 572.082031 C 357.871094 572.550781 358.058594 573 358.386719 573.328125 L 365.390625 580.382812 C 365.71875 580.699219 366.15625 580.878906 366.605469 580.878906 C 367.5625 580.878906 368.359375 580.078125 368.359375 579.113281 C 368.359375 578.660156 368.179688 578.21875 367.863281 577.890625 L 362.097656 572.082031 L 367.863281 566.277344 C 368.195312 565.945312 368.378906 565.5 368.378906 565.03125 C 368.378906 564.5625 368.195312 564.113281 367.863281 563.785156 " fill-opacity="1" fill-rule="nonzero"/></g><g clip-path="url(#56898ccf72)"><path fill="#000000" d="M 395.878906 570.835938 L 388.875 563.785156 C 388.546875 563.46875 388.109375 563.289062 387.660156 563.289062 C 386.703125 563.289062 385.90625 564.085938 385.90625 565.050781 C 385.90625 565.503906 386.085938 565.945312 386.402344 566.277344 L 392.167969 572.082031 L 386.402344 577.890625 C 386.058594 578.21875 385.867188 578.679688 385.867188 579.15625 C 385.867188 580.128906 386.652344 580.917969 387.617188 580.917969 C 388.089844 580.917969 388.546875 580.726562 388.875 580.382812 L 395.878906 573.328125 C 396.207031 573 396.394531 572.550781 396.394531 572.082031 C 396.394531 571.613281 396.207031 571.167969 395.878906 570.835938 " fill-opacity="1" fill-rule="nonzero"/></g></svg>